<?xml version="1.0" encoding="UTF-8"?>
<svg id="Capa_2" data-name="Capa 2" xmlns="http://www.w3.org/2000/svg" viewBox="0 0 250.14 114.01">
  <defs>
    <style>
      .cls-1 {
        fill: none;
      }

      .cls-2 {
        fill: #fff;
      }

      .cls-3 {
        fill: #243396;
      }
    </style>
  </defs>
  <g id="Capa_1-2" data-name="Capa 1">
    <g>
      <path class="cls-3" d="M101.67,51.34V1.81h18.87v9.52c1.9-6.98,6.98-10.88,13.79-10.88,1.09,0,2.18.09,2.72.18v18.68c-.82-.09-1.72-.18-2.81-.18-6.8,0-12.24,3.9-12.24,13.79v18.41h-20.32Z"/>
      <path class="cls-3" d="M190.46,31.93h-32.65c1.63,3.81,5.53,5.53,11.97,5.53,7.44,0,11.61-.82,16.69-1.72v15.33c-2.18.63-9.8,2.09-18.14,2.09-18.77,0-29.75-12.06-29.75-26.76S149.65,0,165.16,0s25.67,11.61,25.67,25.58c0,2.18-.09,4.35-.36,6.35ZM172.32,21.68c-.18-2.09-2.18-6.26-7.26-6.26-3.63,0-6.35,1.99-7.53,6.26h14.78Z"/>
      <path class="cls-3" d="M194.82,26.57c0-15.6,10.34-26.03,22.22-26.03,6.62,0,11.7,2.72,14.51,6.89V1.81h18.59v49.52h-18.59v-5.62c-2.81,4.17-7.89,6.89-14.51,6.89-11.88,0-22.22-10.43-22.22-26.03ZM229.73,26.57c0-5.08-2.99-8.43-7.17-8.43s-7.17,3.36-7.17,8.43,2.99,8.43,7.17,8.43,7.17-3.36,7.17-8.43Z"/>
      <path class="cls-3" d="M7.98,95.78v-16.51H0v-16.14h7.98v-11.79h20.32v11.79h10.34v16.14h-10.34v12.52c0,2.09,1.36,3.45,3.63,3.45,2.09,0,4.26-.45,6.62-1v18.14c-2.9.73-6.53,1.63-12.43,1.63-10.43,0-18.14-7.71-18.14-18.23Z"/>
      <path class="cls-3" d="M45.44,93.87v-30.75h20.32v28.66c0,2.54,1.72,4.08,4.08,4.08s4.63-1.9,4.63-5.35v-27.39h20.32v49.52h-18.68v-5.62c-2,3.08-6.44,6.89-13.97,6.89-9.07,0-16.69-5.8-16.69-20.05Z"/>
      <path class="cls-3" d="M102.94,112.65v-49.52h18.87v9.52c1.9-6.98,6.98-10.88,13.79-10.88,1.09,0,2.18.09,2.72.18v18.68c-.82-.09-1.72-.18-2.81-.18-6.8,0-12.24,3.9-12.24,13.79v18.41h-20.32Z"/>
      <path class="cls-3" d="M139.85,87.89c0-15.6,10.34-26.03,22.22-26.03,6.62,0,11.7,2.72,14.51,6.89v-5.62h18.59v49.52h-18.59v-5.62c-2.81,4.17-7.89,6.89-14.51,6.89-11.88,0-22.22-10.43-22.22-26.03ZM174.77,87.89c0-5.08-2.99-8.43-7.17-8.43s-7.17,3.36-7.17,8.43,2.99,8.43,7.17,8.43,7.17-3.36,7.17-8.43Z"/>
      <g>
        <polygon class="cls-1" points="59.51 18.34 58.87 22.38 59.51 18.34 59.51 18.34"/>
        <path class="cls-1" d="M58.05,34.56s0,0,0,0c-.27-.08-.54-.18-.8-.28.26.1.53.2.8.28Z"/>
        <path class="cls-1" d="M55.02,33.12c.6.49,1.32.88,2.16,1.18.28.1.57.19.88.26-.27-.08-.54-.18-.8-.28-.79-.31-1.54-.7-2.24-1.17Z"/>
        <path class="cls-1" d="M45.33,12.48c-.02-.15-.03-.31-.03-.46,0,.15.01.3.03.46l.8,5.85c.01.09.03.17.04.25-.02-.08-.03-.17-.04-.25l-.8-5.85Z"/>
        <polygon class="cls-1" points="85.79 18.46 81.03 13.41 85.79 18.46 85.79 18.46"/>
        <path class="cls-1" d="M80.29,27.2c.05.47.08.93.09,1.39l.39-.29-.48-1.1h0Z"/>
        <path class="cls-1" d="M69.2,25.06c-.13-.12-.25-.27-.34-.45.09.18.21.33.34.45Z"/>
        <path class="cls-1" d="M71.16,23.18c-.1-.59-.41-1.08-.82-1.28.41.2.72.69.82,1.28Z"/>
        <path class="cls-1" d="M68.61,23.57s0,.07,0,.1c0,.23.05.45.12.65-.07-.2-.11-.42-.12-.65,0-.03,0-.07,0-.1Z"/>
        <path class="cls-1" d="M56.83,26.83c-.08.25-.23.47-.43.64.2-.17.35-.39.43-.64Z"/>
        <path class="cls-1" d="M56.19,27.62c-.15.08-.33.14-.51.16.19-.02.36-.07.51-.16Z"/>
        <polygon class="cls-1" points="56.71 24.57 56.85 25.93 56.88 26.3 56.85 25.93 56.71 24.57"/>
        <path class="cls-1" d="M56.71,24.57c-.02-.19-.15-.33-.32-.39.17.05.3.2.32.39Z"/>
        <path class="cls-1" d="M51.42,25.1h0c0-.06,0-.12.02-.18-.02.06-.02.12-.02.18Z"/>
        <path class="cls-1" d="M63.4,21.84c.17.05.32.14.46.27-.14-.13-.29-.22-.46-.27Z"/>
        <path class="cls-1" d="M64.05,22.32c.12.16.21.35.28.56-.07-.21-.16-.4-.28-.56Z"/>
        <path class="cls-1" d="M63.14,25.34c.11,0,.23-.02.33-.06-.11.04-.22.06-.33.06h0Z"/>
        <path class="cls-1" d="M63.14,21.8h0c.09,0,.18.01.26.04-.08-.02-.17-.04-.26-.04Z"/>
        <g>
          <path class="cls-3" d="M70.34,21.9c-.14-.07-.28-.1-.44-.1-.71,0-1.29.79-1.29,1.77,0,.03,0,.07,0,.1,0,.23.05.45.12.65.03.1.08.2.12.28.09.18.21.33.34.45.2.18.44.28.7.28.71,0,1.29-.79,1.29-1.77,0-.13-.01-.26-.03-.39-.1-.59-.41-1.08-.82-1.28Z"/>
          <path class="cls-3" d="M56.71,24.57c-.02-.19-.15-.33-.32-.39-.06-.02-.12-.02-.18-.02l-4.39.44c-.19.02-.33.15-.39.32-.02.06-.02.12-.02.18l.17,1.73c.05.54.42.98.91,1.14.18.06.37.09.57.07l2.6-.26c.19-.02.36-.07.51-.16.08-.04.15-.09.22-.15.2-.17.35-.39.43-.64.05-.17.07-.35.05-.53l-.04-.37-.14-1.36Z"/>
          <path class="cls-3" d="M64.05,22.32c-.06-.08-.12-.15-.19-.22-.14-.13-.29-.22-.46-.27-.08-.02-.17-.04-.26-.04s-.18.01-.26.04c-.17.05-.32.14-.46.27-.07.06-.13.14-.19.22-.12.16-.21.35-.28.56-.07.21-.1.44-.1.69,0,.52.17.99.43,1.32.06.07.12.13.18.19.2.17.43.26.68.26.11,0,.23-.02.33-.06.32-.12.59-.4.76-.77.13-.27.2-.6.2-.94,0-.24-.04-.48-.1-.69s-.16-.4-.28-.56Z"/>
        </g>
        <polygon points="85.97 18.65 85.79 18.46 85.79 18.46 85.97 18.65"/>
        <path class="cls-2" d="M87.25,33.07l-1.03.65s.07-.04.11-.06l.92-.59Z"/>
        <path class="cls-2" d="M91.13,30.6c1.98-1.26,2.32-4.02.71-5.73l-5.87-6.22-.18-.19-4.76-5.04c-.92-.97-2.12-1.41-3.3-1.38-.11,0-.22,0-.32.02-.19.02-.37.05-.56.09-.92.21-1.77.7-2.4,1.45-.25.3-.47.64-.64,1.02-.05.11-.09.22-.14.34l-.55,1.54h-7.67c0-1.64-.83-3.12-2.13-3.99-.43-.29-.92-.51-1.45-.65l-12.2-3.21c-.45-.12-.9-.14-1.32-.09-.14.02-.28.04-.42.08-.14.03-.27.08-.4.13-.46.18-.87.45-1.21.79-.1.1-.19.2-.28.31-.3.38-.53.82-.65,1.31-.03.14-.06.28-.08.43s-.03.29-.02.44c0,.15.01.3.03.46l.8,5.85c.01.09.03.17.04.25s.04.16.06.25c.02.08.04.16.07.24.13.39.31.75.53,1.07.09.13.19.25.29.37.1.12.21.23.33.33.06.05.12.1.18.15.12.1.25.19.38.27.07.04.13.08.2.12.61.34,1.3.54,2.01.54.55,0,1.12-.1,1.68-.34l2.54-1.08,5.08-2.17h0l-.64,4.04-5.79.81c-.38.05-.73.17-1.04.33-.05.03-.1.06-.15.09-.15.09-.29.19-.43.31s-.26.24-.37.37c-.07.09-.14.18-.21.28-.03.05-.06.1-.09.15-.06.1-.11.2-.16.31-.1.21-.17.43-.22.66-.05.23-.07.46-.07.7,0,.18.02.36.05.54.03.18.08.36.15.54.12.33.26.66.41.98.05.11.1.21.16.31.14.28.29.55.46.81.89,1.44,2.08,2.65,3.46,3.57.7.47,1.45.86,2.24,1.17.26.1.53.2.8.28.24.06.49.11.75.16.26.05.53.09.8.12.14.02.28.03.42.04.43.04.88.05,1.35.05l10.44.08,8.56-6.43c-.02-.46-.05-.93-.09-1.39h0s.48,1.1.48,1.1l.29-.22c.19-.14.4-.24.62-.31.77-.23,1.63.03,2.13.71.45.6.5,1.38.2,2.02-.13.28-.33.53-.6.73l-1.02.76.24.55c.61,1.39,2.28,1.92,3.58,1.18l1.03-.65,3.87-2.47ZM56.83,26.83c-.08.25-.23.47-.43.64-.07.06-.14.1-.22.15-.15.08-.33.14-.51.16l-2.6.26c-.2.02-.39,0-.57-.07-.48-.17-.85-.6-.91-1.14l-.17-1.73h0c0-.06,0-.12.02-.18.05-.17.2-.3.39-.32l4.39-.44c.06,0,.12,0,.18.02.17.05.3.2.32.39l.14,1.36.04.37c.02.19,0,.37-.05.53ZM64.23,24.51c-.17.37-.44.65-.76.77-.11.04-.22.06-.33.06h0c-.25,0-.48-.1-.68-.26-.07-.06-.13-.12-.18-.19-.26-.32-.43-.79-.43-1.32,0-.24.04-.48.1-.69.07-.21.16-.4.28-.56.06-.08.12-.15.19-.22.14-.13.29-.22.46-.27.08-.02.17-.04.26-.04h0c.09,0,.18.01.26.04.17.05.32.14.46.27.07.06.13.14.19.22.12.16.21.35.28.56s.1.44.1.69c0,.35-.07.67-.2.94ZM69.9,25.34c-.26,0-.5-.1-.7-.28-.13-.12-.25-.27-.34-.45-.05-.09-.09-.18-.12-.28-.07-.2-.11-.42-.12-.65,0-.03,0-.07,0-.1,0-.98.58-1.77,1.29-1.77.15,0,.3.04.44.1.41.2.72.69.82,1.28.02.12.03.25.03.39,0,.98-.58,1.77-1.29,1.77Z"/>
        <path class="cls-2" d="M62.42,22.1c.14-.13.29-.22.46-.27-.17.05-.32.14-.46.27Z"/>
        <path class="cls-2" d="M61.95,22.88c.07-.21.16-.4.28-.56-.12.16-.21.35-.28.56Z"/>
        <path class="cls-2" d="M63.14,21.8c-.09,0-.18.01-.26.04.08-.02.17-.04.26-.04h0Z"/>
        <path class="cls-2" d="M63.14,25.34h0c-.25,0-.48-.1-.68-.26.2.17.43.26.68.26Z"/>
        <polygon class="cls-2" points="51.42 25.1 51.6 26.83 51.42 25.1 51.42 25.1"/>
        <path d="M50.39,26.91c.03.18.08.36.15.54.12.33.26.66.41.98-.15-.32-.29-.64-.41-.98-.07-.18-.12-.36-.15-.54Z"/>
        <path d="M73.81,14.61c.17-.38.39-.72.64-1.02-.25.3-.47.64-.64,1.02Z"/>
        <path d="M76.85,12.14c-.92.21-1.77.7-2.4,1.45.63-.75,1.48-1.25,2.4-1.45Z"/>
        <path class="cls-3" d="M93,42.77c.28,0,.54-.07.77-.18.55-.28.93-.85.93-1.51,0-.94-.76-1.7-1.7-1.7h-9.42v-.89h9.42c.14,0,.28-.02.42-.05.73-.19,1.28-.85,1.28-1.64,0-.94-.76-1.7-1.7-1.7h-9.42l-5.32-.03,1.05-.79,3.07-2.29,1.02-.76c.26-.2.46-.45.6-.73.3-.64.25-1.41-.2-2.02-.51-.68-1.37-.93-2.13-.71-.22.06-.43.17-.62.31l-.29.22-.39.29-8.56,6.43-10.44-.08c-.47,0-.92-.02-1.35-.05-.14-.01-.28-.03-.42-.04-.28-.03-.54-.07-.8-.12-.26-.05-.51-.1-.75-.16,0,0,0,0,0,0,0,0,0,0,0,0-.31-.08-.6-.16-.88-.26-.84-.3-1.55-.69-2.16-1.18-1.38-.92-2.57-2.13-3.46-3.57-.16-.26-.31-.53-.46-.81-.05-.1-.11-.21-.16-.31-.15-.32-.29-.64-.41-.98-.07-.18-.12-.36-.15-.54-.03-.18-.05-.36-.05-.54,0-.24.02-.47.07-.7.05-.23.12-.45.22-.66.05-.1.1-.21.16-.31.03-.05.06-.1.09-.15.06-.1.13-.19.21-.28.11-.13.23-.26.37-.37s.28-.22.43-.31c.05-.03.1-.06.15-.09.32-.17.67-.28,1.04-.33l5.79-.81.64-4.04-5.08,2.17-2.54,1.08c-.55.24-1.12.34-1.68.34-.71,0-1.4-.2-2.01-.54-.07-.04-.13-.08-.2-.12-.13-.08-.26-.17-.38-.27-.06-.05-.12-.1-.18-.15-.12-.1-.22-.22-.33-.33-.1-.12-.2-.24-.29-.37-.23-.32-.41-.68-.53-1.07-.03-.08-.05-.16-.07-.24-.02-.08-.04-.16-.06-.25-.02-.08-.03-.17-.04-.25l-.8-5.85c-.02-.15-.03-.31-.03-.46,0-.15,0-.3.02-.44s.04-.29.08-.43c.12-.49.35-.93.65-1.31.09-.11.18-.21.28-.31.34-.34.75-.61,1.21-.79.13-.05.26-.09.4-.13.14-.03.28-.06.42-.08.43-.05.87-.03,1.32.09l12.2,3.21c.53.14,1.02.36,1.45.65,1.3.87,2.13,2.36,2.13,3.99h7.67l.55-1.54c.04-.11.09-.23.14-.34.17-.38.39-.72.64-1.02.63-.75,1.48-1.25,2.4-1.45.18-.04.37-.07.56-.09.11-.01.21-.02.32-.02,1.18-.03,2.38.41,3.3,1.38l4.76,5.04.18.19,5.87,6.22c1.61,1.71,1.27,4.47-.71,5.73l-3.87,2.47-.92.59s-.07.04-.11.06h8.47V1.81h-32.89c-17.76,0-28.82,11.07-28.82,24.96,0,12.88,9.45,22.94,24.98,24.34,1.11.1,2.25.16,3.43.17h0s2.02.03,2.02.03l8.4.04h21.19c.46,0,.88-.19,1.19-.49.31-.31.51-.74.51-1.21,0-.94-.76-1.7-1.7-1.7h-9.42v-.28h0v-.62h9.42c.46,0,.87-.18,1.18-.48.32-.31.52-.74.52-1.22h0c0-.94-.76-1.7-1.7-1.7h-9.42v-.89h9.42Z"/>
        <path d="M58.05,34.56s0,0,0,0c-.31-.08-.6-.16-.88-.26.28.1.57.19.88.26Z"/>
      </g>
    </g>
  </g>
</svg>