<?xml version="1.0" encoding="UTF-8"?>
<svg id="Capa_2" data-name="Capa 2" xmlns="http://www.w3.org/2000/svg" viewBox="0 0 179.49 144.05">
  <defs>
    <style>
      .cls-1 {
        fill: #fff;
      }
    </style>
  </defs>
  <g id="Capa_1-2" data-name="Capa 1">
    <g>
      <path d="M174.56,119.11c.8,0,1.56-.19,2.23-.53,1.6-.82,2.7-2.48,2.7-4.4,0-2.73-2.2-4.94-4.93-4.94h-27.39v-2.6h27.39c.42,0,.83-.06,1.21-.16,2.14-.55,3.72-2.48,3.72-4.78,0-2.72-2.2-4.93-4.93-4.93h-27.39l-15.46-.09,3.06-2.28,8.94-6.67,2.96-2.21c.77-.57,1.35-1.31,1.74-2.12.88-1.85.73-4.11-.58-5.87-1.47-1.97-3.97-2.71-6.2-2.05-.63.19-1.24.48-1.79.9l-.84.62-1.13.85-24.91,18.7-30.35-.23c-1.37,0-2.67-.05-3.92-.16-.42-.03-.83-.07-1.23-.11-.8-.09-1.59-.21-2.34-.34-.75-.13-1.49-.29-2.19-.46-.22-.06-.45-.11-.66-.18-.22-.06-.43-.12-.65-.19-.14-.04-.27-.09-.4-.13-.29-.09-.57-.18-.85-.27-.22-.08-.43-.17-.65-.25-.17-.07-.36-.14-.54-.21-.38-.16-.76-.33-1.13-.5-.73-.35-1.43-.74-2.09-1.15-.66-.42-1.28-.85-1.87-1.33-4.02-2.68-7.46-6.21-10.05-10.4-.47-.76-.91-1.54-1.32-2.35-.16-.3-.31-.61-.45-.91-.22-.47-.43-.93-.63-1.41-.2-.47-.39-.95-.57-1.44-.19-.52-.34-1.05-.44-1.57-.1-.52-.15-1.04-.15-1.56-.01-.69.06-1.37.2-2.03.14-.66.36-1.3.64-1.91.14-.31.29-.6.47-.89.09-.14.17-.29.27-.42.19-.28.39-.55.61-.8.32-.39.67-.75,1.06-1.08.39-.33.8-.63,1.24-.89.14-.09.29-.17.45-.26.91-.48,1.93-.82,3.03-.97l16.84-2.34,1.87-11.76-14.78,6.31-7.39,3.16c-1.61.68-3.26,1-4.87.98-2.07-.02-4.08-.58-5.85-1.58-.19-.11-.39-.23-.57-.35-.38-.24-.75-.5-1.1-.79-.17-.14-.34-.29-.52-.44-.33-.31-.65-.63-.95-.97-.3-.34-.59-.7-.85-1.08-.65-.94-1.18-1.99-1.55-3.13-.08-.22-.14-.45-.21-.69-.06-.24-.11-.47-.16-.71-.05-.24-.09-.49-.12-.73l-2.34-17.01c-.06-.44-.09-.89-.09-1.33,0-.43.02-.86.07-1.28.05-.42.12-.83.22-1.23.36-1.41,1-2.71,1.88-3.81.25-.32.52-.62.8-.9,1-.99,2.2-1.78,3.52-2.29.37-.15.77-.27,1.16-.37.39-.1.8-.18,1.21-.23,1.24-.16,2.54-.08,3.85.27l35.49,9.32c1.54.4,2.95,1.06,4.22,1.9,3.79,2.53,6.2,6.85,6.2,11.6h22.3l1.61-4.46c.11-.34.25-.66.39-.98.13-.28.26-.55.4-.81,1.98-3.68,5.5-5.96,9.31-6.55.25-.04.5-.07.76-.09.31-.03.62-.05.94-.06,3.42-.08,6.93,1.2,9.59,4.03l13.84,14.66.52.55,17.07,18.09c4.69,4.97,3.7,12.99-2.07,16.66l-11.27,7.18-2.67,1.71c-.11.06-.22.11-.32.18h24.63V0h-95.66C32.18,0,0,32.17,0,72.59c0,37.46,27.49,66.72,72.64,70.79,3.24.29,6.55.46,9.97.49h0s5.89.08,5.89.08l24.44.11h61.63c1.35,0,2.57-.55,3.46-1.42.91-.9,1.47-2.14,1.47-3.52,0-2.72-2.2-4.93-4.93-4.93h-27.39v-2.6h27.39c1.33,0,2.53-.53,3.42-1.39.93-.9,1.51-2.16,1.51-3.55,0-2.73-2.2-4.94-4.93-4.94h-27.39v-2.6h27.39Z"/>
      <path class="cls-1" d="M171.17,67.04l-17.07-18.09-.52-.55-13.84-14.66c-2.66-2.83-6.16-4.11-9.59-4.03-.32,0-.63.03-.94.06-.26.02-.51.06-.76.09-3.8.6-7.33,2.87-9.31,6.55-.14.27-.27.53-.4.81-.14.32-.27.64-.39.98l-1.61,4.46h-22.3c0-4.76-2.41-9.07-6.2-11.6-1.27-.85-2.68-1.5-4.22-1.9l-35.49-9.32c-1.31-.34-2.61-.42-3.85-.27-.41.05-.82.13-1.21.23-.39.1-.79.22-1.16.37-1.33.51-2.53,1.3-3.52,2.29-.28.29-.55.59-.8.9-.88,1.11-1.52,2.4-1.88,3.81-.1.4-.17.81-.22,1.23-.05.42-.08.85-.07,1.28,0,.44.04.88.09,1.33l2.34,17.01c.03.24.07.49.12.73.04.24.1.47.16.71.06.24.13.47.21.69.37,1.14.9,2.19,1.55,3.13.26.37.55.73.85,1.08.29.34.62.66.95.97.17.15.34.29.52.44.35.29.72.55,1.1.79.19.12.38.24.57.35,1.77,1,3.78,1.56,5.85,1.58,1.61.02,3.27-.29,4.87-.98l7.39-3.16,14.78-6.31-1.87,11.76-16.84,2.34c-1.1.15-2.12.49-3.03.97-.16.09-.31.17-.45.26-.44.26-.85.56-1.24.89-.39.33-.74.69-1.06,1.08-.22.26-.42.52-.61.8-.09.14-.18.28-.27.42-.17.29-.33.58-.47.89-.28.61-.5,1.25-.64,1.91-.14.66-.22,1.34-.2,2.03,0,.52.05,1.04.15,1.56.09.52.24,1.05.44,1.57.18.48.37.96.57,1.44.2.47.41.94.63,1.41.14.3.29.61.45.91.41.8.85,1.59,1.32,2.35,2.59,4.19,6.04,7.72,10.05,10.4.34.22.68.44,1.03.66,1.04.64,2.12,1.23,3.22,1.75.74.35,1.49.68,2.25.98.06.02.11.04.18.06.67.26,1.36.5,2.05.72.04.01.06.02.1.03h0c.7.18,1.44.34,2.19.47.75.14,1.54.25,2.34.34.4.04.81.09,1.23.11,1.25.11,2.55.16,3.92.16l30.35.23,24.91-18.7c-.06-1.34-.14-2.69-.27-4.05l1.41,3.19.84-.62c.55-.42,1.16-.72,1.79-.9,2.23-.66,4.73.08,6.2,2.05,1.31,1.76,1.46,4.02.58,5.87-.39.81-.97,1.54-1.74,2.12l-2.96,2.21.71,1.61c1.77,4.03,6.64,5.6,10.42,3.44l2.99-1.89,11.27-7.18c5.76-3.67,6.76-11.69,2.07-16.66Z"/>
      <g>
        <path d="M107.39,57.03c-.15,0-.3.02-.44.04-.06,0-.12.03-.18.04-.43.1-.84.3-1.21.58-.19.15-.38.32-.55.51-.15.17-.28.36-.41.55-.11.17-.22.35-.31.54-.07.14-.13.28-.19.42-.07.18-.14.37-.19.57-.17.59-.26,1.22-.26,1.89,0,.1,0,.19.01.29.05,1.14.36,2.19.86,3.01.17.27.35.53.56.75.16.17.33.33.51.46.54.41,1.15.64,1.81.64.57,0,1.1-.17,1.58-.48.1-.06.19-.13.28-.2.18-.14.36-.31.52-.49.35-.39.64-.87.87-1.41.08-.18.14-.37.2-.56.19-.62.29-1.29.29-2.01,0-.39-.03-.76-.09-1.13-.37-2.3-1.87-4.02-3.65-4.02Z"/>
        <path d="M69.53,70.12l-.11-1.08-.4-3.96c-.03-.27-.13-.51-.3-.71-.07-.08-.14-.15-.23-.22-.25-.19-.57-.28-.91-.25l-11.49,1.16-1.28.13c-.09,0-.18.03-.26.05-.33.1-.6.33-.76.63-.06.11-.1.23-.13.36s-.03.26-.02.39l.51,5.04c.02.2.05.39.1.58.04.16.09.32.15.48.08.21.19.41.31.6.14.23.29.44.47.63.11.12.23.23.35.33.37.31.8.55,1.26.71.52.18,1.08.25,1.66.19l7.56-.76c.84-.08,1.6-.43,2.19-.95.36-.31.65-.68.88-1.1.36-.67.53-1.44.45-2.25Z"/>
        <path d="M91.39,61.23c-.01-.1-.03-.2-.05-.3-.03-.17-.07-.33-.11-.5-.04-.16-.09-.31-.14-.46-.06-.17-.11-.34-.18-.49,0-.02-.01-.03-.02-.05-.06-.13-.13-.25-.2-.37-.08-.14-.16-.28-.24-.4-.07-.1-.14-.19-.21-.28-.1-.12-.19-.23-.3-.34-.09-.09-.18-.18-.27-.26-.06-.05-.12-.1-.19-.15-.11-.08-.23-.15-.34-.22-.07-.04-.13-.08-.2-.11-.13-.06-.26-.1-.4-.15-.06-.02-.13-.05-.19-.06-.2-.05-.4-.07-.61-.07,0,0,0,0,0,0-.15,0-.29.02-.44.05-.03,0-.06,0-.09,0-.07.01-.13.04-.19.05-.1.03-.21.06-.31.1-.1.04-.21.09-.31.14-.03.02-.06.03-.09.05-.14.08-.27.17-.4.26,0,0,0,0,0,0,0,0,0,0,0,0-.17.13-.32.28-.47.44-.05.05-.09.1-.14.16-.12.15-.24.3-.35.47-.11.17-.22.35-.31.54,0,0,0,0,0,0-.11.22-.2.46-.28.7-.01.04-.03.08-.04.12-.04.12-.07.25-.11.37-.02.09-.04.17-.06.26-.03.16-.06.31-.08.47-.01.07-.02.15-.03.22-.02.24-.04.48-.04.73h0c0,.11,0,.21.01.31,0,.14.02.27.03.4.02.24.06.48.11.72.02.07.04.14.05.22.05.22.12.43.19.64.01.04.02.08.04.11.09.24.2.47.32.69.02.03.04.07.05.1.13.22.27.43.42.62.02.03.05.06.08.09.06.07.11.13.17.19.13.13.26.25.4.36.04.03.09.07.13.1.14.11.29.2.45.28.04.02.08.04.11.05.17.08.34.14.52.18.02,0,.05,0,.07.01.19.04.39.07.59.07,0,0,0,0,0,0,.15,0,.29-.02.44-.04.04,0,.07-.01.11-.02.14-.03.27-.06.41-.11,0,0,0,0,.01,0,.14-.05.28-.12.41-.19.02-.01.05-.03.07-.04.13-.08.26-.16.38-.26.13-.1.26-.22.38-.34,0,0,0,0,.01-.01.36-.37.67-.83.92-1.36,0-.02.02-.04.03-.06.08-.18.15-.36.21-.55,0-.02.02-.04.02-.06.03-.09.05-.19.08-.29.06-.2.1-.41.14-.62.02-.09.03-.18.04-.28.04-.3.07-.6.07-.92,0-.23-.02-.46-.04-.68,0-.09-.02-.18-.03-.27Z"/>
      </g>
    </g>
  </g>
</svg>